<svg xmlns="http://www.w3.org/2000/svg" viewBox="0 0 512 512" role="img" aria-label="AI助手图标">
  <defs>
    <linearGradient id="bg" x1="0" y1="0" x2="512" y2="512">
      <stop offset="0" stop-color="#071A42"/>
      <stop offset="0.55" stop-color="#071130"/>
      <stop offset="1" stop-color="#101743"/>
    </linearGradient>
    <linearGradient id="rim" x1="70" y1="70" x2="442" y2="442">
      <stop offset="0" stop-color="#A8D8FF"/>
      <stop offset="0.45" stop-color="#78A9FF"/>
      <stop offset="0.72" stop-color="#B59DFF"/>
      <stop offset="1" stop-color="#FFB18D"/>
    </linearGradient>
    <linearGradient id="glass" x1="86" y1="72" x2="426" y2="438">
      <stop offset="0" stop-color="#C8E8FF" stop-opacity="0.20"/>
      <stop offset="0.55" stop-color="#4563BD" stop-opacity="0.10"/>
      <stop offset="1" stop-color="#FFB0A8" stop-opacity="0.22"/>
    </linearGradient>
    <linearGradient id="wave" x1="70" y1="294" x2="444" y2="344">
      <stop offset="0" stop-color="#3A96FF" stop-opacity="0.55"/>
      <stop offset="0.55" stop-color="#756DE1" stop-opacity="0.45"/>
      <stop offset="1" stop-color="#FFA06D" stop-opacity="0.85"/>
    </linearGradient>
    <linearGradient id="wave2" x1="70" y1="350" x2="444" y2="432">
      <stop offset="0" stop-color="#063078" stop-opacity="0.95"/>
      <stop offset="0.62" stop-color="#2A3379" stop-opacity="0.68"/>
      <stop offset="1" stop-color="#CA7896" stop-opacity="0.58"/>
    </linearGradient>
    <linearGradient id="spark" x1="352" y1="118" x2="426" y2="194">
      <stop offset="0" stop-color="#F5F1FF"/>
      <stop offset="0.55" stop-color="#FF9DE0"/>
      <stop offset="1" stop-color="#FFC17C"/>
    </linearGradient>
  </defs>
  <rect width="512" height="512" rx="112" fill="url(#bg)"/>
  <circle cx="96" cy="92" r="170" fill="#236CFF" opacity="0.22"/>
  <circle cx="430" cy="320" r="160" fill="#FF9D70" opacity="0.18"/>
  <rect x="66" y="58" width="380" height="396" rx="82" fill="url(#glass)" stroke="url(#rim)" stroke-width="8"/>
  <rect x="76" y="68" width="360" height="376" rx="74" fill="none" stroke="#FFFFFF" stroke-width="2" opacity="0.36"/>
  <path d="M66 300 C122 255 184 244 238 268 C300 296 316 342 382 339 C414 337 444 322 446 320 L446 380 L66 380 Z" fill="url(#wave)" opacity="0.92"/>
  <path d="M66 360 C126 326 178 309 236 336 C291 362 324 392 389 376 C424 367 444 350 446 348 L446 454 L66 454 Z" fill="url(#wave2)" opacity="0.94"/>
  <path d="M66 300 C122 255 184 244 238 268 C300 296 316 342 382 339 C414 337 444 322 446 320" fill="none" stroke="#FFD7CB" stroke-width="2.5" opacity="0.70"/>
  <g fill="#FFFFFF" opacity="0.88">
    <circle cx="145" cy="128" r="1.1"/><circle cx="202" cy="151" r="1.1"/><circle cx="246" cy="126" r=".9"/><circle cx="283" cy="145" r="1.3"/>
    <circle cx="351" cy="151" r="1.0"/><circle cx="126" cy="188" r="1.2"/><circle cx="219" cy="190" r="1.0"/><circle cx="309" cy="195" r="1.1"/>
    <circle cx="415" cy="203" r="1.0"/><circle cx="151" cy="253" r="1.0"/><circle cx="211" cy="237" r="1.1"/><circle cx="323" cy="260" r="1.0"/>
  </g>
  <g stroke="#FFFFFF" stroke-linecap="round" opacity="0.92">
    <path d="M217 164v12M211 170h12" stroke-width="1.5"/>
    <path d="M150 246v12M144 252h12" stroke-width="1.7"/>
    <path d="M316 260v9M311.5 264.5h9" stroke-width="1.3"/>
  </g>
  <path d="M386 115 C393 142 400 149 427 156 C400 163 393 170 386 197 C379 170 372 163 345 156 C372 149 379 142 386 115 Z" fill="none" stroke="url(#spark)" stroke-width="7" stroke-linejoin="round"/>
  <circle cx="424" cy="146" r="4.6" fill="none" stroke="#FFD4C8" stroke-width="3"/>
</svg>
